<?xml version="1.0" encoding="UTF-8" standalone="no"?>
<!DOCTYPE svg PUBLIC "-//W3C//DTD SVG 1.1//EN" "http://www.w3.org/Graphics/SVG/1.1/DTD/svg11.dtd">
<svg width="100%" height="100%" viewBox="0 0 800 800" version="1.1" xmlns="http://www.w3.org/2000/svg" xmlns:xlink="http://www.w3.org/1999/xlink" xml:space="preserve" xmlns:serif="http://www.serif.com/" style="fill-rule:evenodd;clip-rule:evenodd;stroke-linejoin:round;stroke-miterlimit:2;">
    <g transform="matrix(1,0,0,1,-559.35,3.15)">
        <g transform="matrix(1,0,0,1,-563.641,0)">
            <path d="M1510.2,793.5C1065.8,772.7 981.1,160.5 1399.9,19.9C1641.3,-62.9 1911.9,123.2 1918.1,379C1931.4,609 1733.9,801.2 1510.1,793.5L1510.2,793.5ZM1398.2,396.3L1195.4,396.3C1187.9,396.3 1187.6,396.3 1188.2,403.6C1189.5,419.1 1190.3,434.6 1192.7,450C1217.7,628.1 1399.7,756.5 1576,723C1730,698.4 1850.2,559.2 1850.9,403C1851,396.3 1850.9,396.3 1844,396.3L1643.4,396.3C1671.9,378.2 1690,338.9 1668.4,310.1C1708.7,271.3 1728.2,224.6 1709.9,169.8C1661.7,42.8 1459.9,30.4 1361.3,103.5C1270.5,175.5 1356.8,246.1 1443.3,209.3C1458.18,203.11 1474.35,200.638 1490.4,202.1C1515.2,202.9 1549.4,224.4 1531.4,251.9C1506.9,290.4 1454,280.3 1418.2,265.5C1404.41,259.215 1389.09,257.061 1374.1,259.3C1295,275.8 1349.5,371.6 1398.1,396.3L1398.2,396.3Z" style="fill:rgb(232,76,60);fill-rule:nonzero;"/>
        </g>
        <g transform="matrix(1,0,0,1,-563.641,0)">
            <path d="M1510.2,383.7C1462.3,384.3 1402.7,365.1 1391.5,312.7C1390.1,304.8 1394.2,299.1 1402,299.5C1441,303.2 1479.7,315.7 1518.6,304.1C1569,294.1 1601.8,231.8 1555.4,195.5C1520,169.4 1471.5,171.6 1432,186.5C1394.4,203.6 1359.3,178.8 1394.1,143.3C1459.8,87.7 1587.1,88.5 1641.7,159.9C1694.8,225.3 1623.3,310.7 1553.7,323.7C1538.3,327.3 1522.1,328.4 1506.3,330.7C1498.6,331.5 1475.3,334.8 1489.3,345.4C1508,353.1 1530,347.8 1549.6,346.8C1565.6,344.5 1581.1,340 1596.9,336.6C1606.9,333.3 1620.7,339.9 1613.9,351.6C1589.1,382.4 1545.9,380.2 1510.2,383.7Z" style="fill:rgb(232,76,60);fill-rule:nonzero;"/>
        </g>
    </g>
    <g transform="matrix(1,0,0,1,-1122.99,3.15)">
        <path d="M1398.1,396.3L1386.1,388.1C1360.85,370.753 1342.75,344.795 1335.2,315.1C1326.8,282.4 1351.2,263.1 1374.1,259.3C1389.5,256.7 1404.1,259.6 1418.2,265.5C1437.58,274.269 1458.63,278.706 1479.9,278.5C1501.1,277.7 1519.6,271 1531.4,251.9C1539.9,238.2 1537.2,224.2 1524.4,214.5C1514.48,207.217 1502.68,202.915 1490.4,202.1C1474.38,200.662 1458.25,203.133 1443.4,209.3C1418.49,220.225 1390.52,222.066 1364.4,214.5C1359,212.859 1353.77,210.681 1348.8,208C1326.4,196 1318.1,175.6 1325.4,151.2C1331.82,131.827 1344.44,115.095 1361.3,103.6C1387.25,84.529 1417.1,71.417 1448.7,65.2C1514.71,50.718 1583.79,60.484 1643.2,92.7C1675.2,109.5 1698.9,134.7 1709.9,169.7C1725.5,219.7 1713.9,263.3 1677.1,300.4C1674.1,303.4 1671.5,306.6 1668.4,310.1C1679,323.8 1680,339.9 1674.9,356.6C1669.8,373.3 1658.6,385.6 1643.4,396.3L1844,396.3C1850.9,396.3 1851,396.3 1850.9,402.9C1849.9,494.537 1810.17,581.602 1741.6,642.4C1695.41,684.788 1637.85,712.803 1576,723C1547.7,728 1519.2,729.2 1490.6,726.4C1399.43,718.992 1315.45,673.605 1259.3,601.4C1224,557.742 1201,505.429 1192.7,449.9C1190.3,434.6 1189.5,419 1188.2,403.6C1187.6,396.3 1187.9,396.3 1195.4,396.3L1398.1,396.3ZM1510.1,383.7C1525.5,382.4 1540.9,381.7 1556.1,379.7C1574.93,377.951 1592.83,370.64 1607.5,358.7C1610.01,356.66 1612.17,354.229 1613.9,351.5C1618.1,344.5 1614.2,336.9 1606,336.1C1602.99,335.812 1599.96,335.981 1597,336.6C1581.1,340 1565.5,344.6 1549.6,346.7C1534.2,348.9 1518.6,348.9 1503,349.2C1498.4,349.2 1493.6,347.3 1489.3,345.4C1487.3,344.5 1485,341.5 1484.9,339.4C1484.9,337.6 1487.5,334.7 1489.4,334.1C1494.9,332.4 1500.6,331.6 1506.3,330.7C1522.1,328.3 1538.3,327.3 1553.8,323.7C1593.32,315.214 1627.42,290.286 1647.5,255.2C1666.5,222.7 1664.4,189 1641.7,159.9C1626.04,139.305 1604.64,123.786 1580.2,115.3C1536.3,100.3 1492.2,101.9 1448.1,114C1427.83,118.827 1409.2,128.938 1394.1,143.3C1388,149.3 1383.1,156.2 1380.8,164.7C1377.9,175.3 1381.8,184.5 1391.9,188.9C1395.8,190.6 1400.2,191.5 1404.4,191.9C1414.1,192.9 1423.1,189.7 1432,186.5C1454.75,177.46 1479.35,174.03 1503.7,176.5C1522.5,178.8 1540.2,183.7 1555.4,195.5C1569.48,206.005 1577.79,222.576 1577.79,240.144C1577.79,255.192 1571.69,269.616 1560.9,280.1C1549.23,291.776 1534.61,300.072 1518.6,304.1C1490.4,311.6 1462.1,309.4 1433.8,303.8C1423.3,301.723 1412.68,300.287 1402,299.5C1394.2,299.1 1390,304.8 1391.5,312.6C1392.09,316.4 1393.09,320.122 1394.5,323.7C1403.5,345.7 1420.1,360.2 1441.2,370.1C1462.94,379.6 1486.49,384.242 1510.2,383.7L1510.1,383.7Z" style="fill:white;fill-rule:nonzero;"/>
    </g>
</svg>
